# xmcd
#
# Track frame offsets:
#	150
#	20789
#	34678
#	46138
#	60513
#	71213
#	92504
#	126557
#	152237
#	174137
#	188722
#	208971
#	228354
#	240257
#	253927
#
# Disc length: 3591 seconds
#
# Revision: 1
# Processed by: cddbd v1.5.2PL0 Copyright (c) Steve Scherf et al.
# Submitted via: audiograbber 1.83.01
#
DISCID=cd0e050f
DTITLE=Various Artist - Encylopedia of Blues Vol one
DYEAR=1900
DGENRE=Blues
TTITLE0=Why I Sing the Blues - BB King
TTITLE1=Alabama Bound - Leadbelly
TTITLE2=When I'm gone - Memphis Slim
TTITLE3=Davenport Blues - Miff Mole's Molers
TTITLE4=Apollo Boogie - Art Tatum
TTITLE5=Limehouse Blues - Teddy Wilson
TTITLE6=Slow Blues in G - Jimmy Witherspoon
TTITLE7=Jam Blues - Jimmy Hamilton
TTITLE8=Everything a Good Man Needs - Carmen McRae
TTITLE9=Minnie the Moocher - Cab Calloway
TTITLE10=Slam Slam Blues - Dizzy Gillespie
TTITLE11=Walking on a Tightrope - Jimmy Witherspoon
TTITLE12=Memphis Slim Usa - Memphis Slim
TTITLE13=Leaving Blues - Leadbelly
TTITLE14=Navy Blues - Miff Mole's Molers
EXTD=
EXTT0=
EXTT1=
EXTT2=
EXTT3=
EXTT4=
EXTT5=
EXTT6=
EXTT7=
EXTT8=
EXTT9=
EXTT10=
EXTT11=
EXTT12=
EXTT13=
EXTT14=
PLAYORDER=
